<?xml version="1.0" encoding="UTF-8" standalone="no"?>
<!-- Uploaded to: SVG Repo, www.svgrepo.com, Generator: SVG Repo Mixer Tools -->

<svg
   width="800px"
   height="800px"
   viewBox="0 0 128 128"
   aria-hidden="true"
   role="img"
   class="iconify iconify--noto"
   preserveAspectRatio="xMidYMid meet"
   version="1.1"
   id="svg295"
   sodipodi:docname="promoPhonelogo.svg"
   xml:space="preserve"
   inkscape:version="1.2.1 (9c6d41e410, 2022-07-14)"
   inkscape:export-filename="..\Users\yaya\Desktop\logoDark.png"
   inkscape:export-xdpi="96"
   inkscape:export-ydpi="96"
   xmlns:inkscape="http://www.inkscape.org/namespaces/inkscape"
   xmlns:sodipodi="http://sodipodi.sourceforge.net/DTD/sodipodi-0.dtd"
   xmlns="http://www.w3.org/2000/svg"
   xmlns:svg="http://www.w3.org/2000/svg"><defs
     id="defs299" /><sodipodi:namedview
     id="namedview297"
     pagecolor="#ffffff"
     bordercolor="#000000"
     borderopacity="0.25"
     inkscape:showpageshadow="2"
     inkscape:pageopacity="0.0"
     inkscape:pagecheckerboard="0"
     inkscape:deskcolor="#d1d1d1"
     showgrid="false"
     inkscape:zoom="0.77125"
     inkscape:cx="158.18476"
     inkscape:cy="417.50405"
     inkscape:window-width="1287"
     inkscape:window-height="745"
     inkscape:window-x="-8"
     inkscape:window-y="-8"
     inkscape:window-maximized="1"
     inkscape:current-layer="g1834" /><g
     id="g1834"
     inkscape:export-filename="..\Projects\ecommerce\frontEnd\src\assets\promoLogo1.png"
     inkscape:export-xdpi="96"
     inkscape:export-ydpi="96"
     transform="matrix(1.2662594,0,0,1.2662594,-37.835986,-41.561811)"
     style="fill:#cccccc"><g
       id="g925"><path
         style="fill:#cccccc;stroke-width:0.0767379"
         d="m 29.904691,82.93947 v -3.18555 l 0.431015,0.02356 0.431015,0.02356 0.0196,3.161992 0.01959,3.161991 h -0.450605 -0.450605 z m 5.190072,0.02356 0.0196,-3.161992 0.431015,-0.02356 0.431015,-0.02356 v 3.18555 3.185554 h -0.450614 -0.450606 z m 3.505191,2.472868 V 84.746773 L 37.981542,84.10363 37.363128,83.460487 36.838414,83.437619 36.3137,83.414751 36.29122,82.963039 36.26874,82.511325 h 1.01569 c 1.276367,0 1.315526,-0.02664 1.315526,-0.894722 0,-0.885542 -0.02831,-0.906229 -1.274307,-0.931162 L 36.3137,80.665193 v -0.432061 -0.432073 h 1.011949 c 1.148804,0 1.317237,0.03363 1.653517,0.330183 0.359761,0.317256 0.445341,0.613401 0.445341,1.541087 0,0.929078 -0.104635,1.187798 -0.623336,1.541265 l -0.281203,0.191624 0.45227,0.47824 0.452269,0.478238 v 0.881673 0.881673 h -0.412268 -0.412276 z m 2.362743,0.509473 c -0.167259,-0.09928 -0.372531,-0.314408 -0.467262,-0.4897 -0.163742,-0.302994 -0.168991,-0.37849 -0.170186,-2.448248 -7.64e-4,-1.325298 0.0291,-2.219524 0.07872,-2.356764 0.191976,-0.531014 0.613353,-0.801366 1.349895,-0.86608 l 0.51909,-0.04561 v 0.482747 0.482746 h -0.397948 c -0.705919,0 -0.685594,-0.06079 -0.711568,2.127861 -0.01533,1.292232 0.0048,1.974231 0.06236,2.120052 0.09415,0.23822 0.254381,0.305828 0.728585,0.307426 l 0.318575,0.001 v 0.432074 0.432074 l -0.505974,-0.0013 c -0.385159,-0.001 -0.577203,-0.04358 -0.804283,-0.178359 z m 1.685054,-0.252423 v -0.432073 h 0.395595 c 0.236727,0 0.462502,-0.04911 0.562195,-0.122293 0.164833,-0.120999 0.166596,-0.143741 0.166596,-2.148191 0,-2.356465 0.02158,-2.285926 -0.699274,-2.285926 h -0.425112 v -0.482696 -0.482691 l 0.553482,0.04387 c 0.667316,0.05289 1.076446,0.286947 1.2902,0.738097 0.126867,0.267765 0.145219,0.521473 0.165066,2.282136 0.02415,2.142466 -0.01241,2.450362 -0.339379,2.857597 -0.270342,0.33671 -0.594421,0.464242 -1.179727,0.464242 h -0.489642 z m 2.850831,-2.297845 c 0.0019,-2.16048 0.02143,-2.704542 0.09369,-2.608267 0.05022,0.06692 0.251541,0.338198 0.447372,0.602864 l 0.356055,0.481212 v 2.127058 2.127055 h -0.449746 -0.449755 z m 4.345249,0.599769 v -2.13799 l 0.389491,-0.53693 c 0.21422,-0.295312 0.417058,-0.53693 0.450752,-0.53693 0.03369,0 0.05239,1.193113 0.04152,2.651362 l -0.01974,2.651358 -0.431016,0.02356 -0.431015,0.02356 z m 2.396543,1.965723 c -0.145478,-0.08845 -0.347868,-0.288226 -0.449754,-0.443946 -0.184306,-0.281687 -0.185366,-0.294046 -0.208381,-2.427722 -0.0215,-1.993356 -0.01271,-2.169269 0.124554,-2.494495 0.225702,-0.53474 0.615116,-0.768847 1.301652,-0.782521 l 0.545865,-0.01087 0.02248,0.451714 0.02248,0.451714 h -0.448143 c -0.709233,0 -0.683727,-0.08504 -0.683727,2.27936 0,2.011234 0.0017,2.033742 0.166598,2.154758 0.09969,0.07318 0.325466,0.122292 0.562193,0.122292 h 0.395597 v 0.432073 0.432073 l -0.543454,-0.0018 c -0.409227,-0.0014 -0.608785,-0.04152 -0.807961,-0.162622 z m 1.651253,-0.267647 v -0.432073 h 0.40397 c 0.275361,0 0.453615,-0.04376 0.559902,-0.137478 0.149565,-0.131867 0.156223,-0.214448 0.163094,-2.02289 0.0039,-1.036976 0.005,-1.94475 0.0023,-2.017277 -0.0097,-0.262312 -0.221405,-0.378765 -0.688599,-0.378765 h -0.448143 l 0.02248,-0.451714 c 0.02581,-0.51858 0.07394,-0.546526 0.781663,-0.453856 0.506341,0.0663 0.846438,0.306005 1.058577,0.746091 0.16225,0.336593 0.168658,0.428907 0.168658,2.429526 0,1.950845 -0.0097,2.100705 -0.157118,2.419788 -0.23363,0.505791 -0.643002,0.730721 -1.329911,0.730721 h -0.536868 z m 6.821284,-2.749558 v -3.181631 h 0.412276 0.412275 v 3.181631 3.181631 h -0.412275 -0.412276 z m 5.172183,-0.0039 v -3.185553 l 0.431015,0.02356 0.431016,0.02356 0.02051,1.35514 0.02051,1.355139 h 1.122617 1.122617 v 0.471353 0.471353 h -1.124388 -1.124388 v 1.335499 1.335501 h -0.449759 -0.449755 z m 3.466012,0.02356 0.01959,-3.161993 0.431014,-0.02356 0.431016,-0.02356 v 3.185552 3.185552 h -0.450599 -0.450606 z m 2.489526,3.05149 c -0.29926,-0.136608 -0.608285,-0.528234 -0.705096,-0.893564 -0.0943,-0.355838 -0.101264,-3.785854 -0.0085,-4.204487 0.0856,-0.38644 0.342968,-0.776029 0.624553,-0.945399 0.122866,-0.07391 0.472294,-0.156416 0.776508,-0.183367 l 0.553116,-0.049 v 0.48288 0.48288 h -0.438137 c -0.703514,0 -0.686251,-0.05697 -0.686251,2.264751 0,1.87268 0.008,1.985747 0.149919,2.134542 0.113574,0.119028 0.249864,0.157117 0.562193,0.157117 h 0.412276 v 0.432074 0.432074 l -0.505975,-0.003 c -0.278284,-0.0018 -0.608841,-0.05003 -0.734568,-0.107429 z m 1.615339,-0.303813 V 85.2798 l 0.45004,-0.03411 c 0.684573,-0.0519 0.669161,5.8e-5 0.671963,-2.265134 0.0028,-2.304379 0.01126,-2.276045 -0.676499,-2.276045 H 73.455971 V 80.22173 79.738985 l 0.519091,0.04561 c 0.736541,0.06472 1.157918,0.335065 1.349894,0.866082 0.04946,0.136793 0.07995,1.03124 0.07995,2.344891 0,2.373737 -0.01997,2.486326 -0.510685,2.878588 -0.224705,0.179624 -0.353382,0.215827 -0.851481,0.239561 l -0.586772,0.02795 z m 2.848728,-2.354883 c 3.01e-4,-3.125549 -0.06125,-2.925833 0.548572,-1.779665 l 0.275699,0.518183 v 2.015339 2.01534 h -0.412275 -0.412276 l 3e-4,-2.769197 z m 3.200442,2.317484 c -0.510168,-0.892341 -3.132067,-5.680241 -3.175482,-5.798813 -0.03743,-0.102224 0.02418,-0.117442 0.39376,-0.09732 l 0.438129,0.02386 0.779188,1.414059 c 0.428553,0.777734 1.21258,2.200629 1.742284,3.161992 l 0.963098,1.747934 h -0.441361 -0.44136 z m 1.989351,-2.710278 0.0196,-3.161993 h 0.412276 0.412276 l 0.01959,3.161993 0.0196,3.161991 h -0.451466 -0.451456 z m 1.181458,2.729917 v -0.432073 h 1.574141 1.574143 v 0.432073 0.432074 H 84.250091 82.67595 Z M 80.183556,84.581315 79.752541,83.783933 V 81.77284 79.761743 h 0.414628 c 0.263636,0 0.427787,0.03594 0.45076,0.09868 0.01987,0.05428 0.02724,1.318089 0.01639,2.808478 l -0.01974,2.709795 z M 47.670015,83.33095 c 0,-0.183644 -0.07103,-0.379203 -0.206137,-0.567515 -0.113377,-0.158024 -0.602486,-0.830574 -1.086909,-1.494553 -0.484424,-0.66398 -0.880771,-1.274708 -0.880771,-1.357176 0,-0.130219 0.05668,-0.149874 0.431016,-0.149444 l 0.431015,4.98e-4 0.858382,1.177885 c 0.472111,0.647838 0.876891,1.176294 0.899511,1.174348 0.02262,-0.002 0.426631,-0.533794 0.897802,-1.181885 l 0.856675,-1.178345 0.416902,0.02314 c 0.303087,0.01683 0.422868,0.05604 0.438751,0.143655 0.01202,0.06629 -0.468333,0.78772 -1.06744,1.603195 -0.967957,1.317532 -1.089288,1.516302 -1.089288,1.784537 v 0.301856 H 48.119769 47.670015 Z M 31.104037,82.991234 v -0.479916 h 1.006595 c 1.251979,0 1.24218,0.0071 1.24218,-0.903427 0,-0.910551 0.0098,-0.903424 -1.24218,-0.903424 h -1.006595 v -0.479916 -0.479915 l 1.111422,0.0284 c 1.064316,0.0272 1.124589,0.03754 1.422133,0.243904 0.450703,0.312584 0.563255,0.591678 0.600349,1.488684 0.02766,0.668971 0.01108,0.806127 -0.136055,1.124646 -0.104065,0.225292 -0.282657,0.442584 -0.471284,0.573406 -0.289042,0.200464 -0.35744,0.212018 -1.415143,0.239054 l -1.111422,0.0284 z m 30.808221,-0.0086 v -0.471353 h 0.95779 c 1.267388,0 1.290985,-0.01636 1.290985,-0.895706 0,-0.906333 -0.0066,-0.911146 -1.261469,-0.911146 H 61.912258 V 80.22336 79.742285 l 1.122204,0.03341 c 1.119332,0.03332 1.122928,0.03403 1.405484,0.273367 0.425547,0.360463 0.554387,0.649393 0.598936,1.343143 0.05072,0.789753 -0.06369,1.227012 -0.418247,1.598599 -0.361551,0.378913 -0.683829,0.462221 -1.790127,0.462749 l -0.91825,4.38e-4 z m 20.763692,0 v -0.471353 h 1.124386 1.124388 v 0.471353 0.471353 H 83.800336 82.67595 Z m 0,-2.749557 v -0.471332 h 1.574141 1.574143 v 0.471354 0.471352 H 84.250091 82.67595 Z"
         id="path1222" /><circle
         style="fill:#87aade;fill-rule:evenodd;stroke:none;stroke-width:0;stroke-dasharray:none;stroke-opacity:1;stop-color:#000000"
         id="path1276"
         cx="88.299088"
         cy="84.861664"
         r="1.6" /></g></g></svg>
