<?xml version="1.0" encoding="UTF-8" standalone="no"?>
<svg
   aria-hidden="true"
   role="img"
   class="iconify iconify--logos"
   width="31.88"
   height="32"
   preserveAspectRatio="xMidYMid meet"
   viewBox="0 0 256 257"
   version="1.1"
   id="svg20"
   sodipodi:docname="vite.svg"
   inkscape:version="1.2.1 (9c6d41e410, 2022-07-14)"
   xmlns:inkscape="http://www.inkscape.org/namespaces/inkscape"
   xmlns:sodipodi="http://sodipodi.sourceforge.net/DTD/sodipodi-0.dtd"
   xmlns="http://www.w3.org/2000/svg"
   xmlns:svg="http://www.w3.org/2000/svg">
  <sodipodi:namedview
     id="namedview22"
     pagecolor="#ffffff"
     bordercolor="#000000"
     borderopacity="0.25"
     inkscape:showpageshadow="2"
     inkscape:pageopacity="0.0"
     inkscape:pagecheckerboard="0"
     inkscape:deskcolor="#d1d1d1"
     showgrid="false"
     inkscape:zoom="13.633903"
     inkscape:cx="15.989552"
     inkscape:cy="16.576325"
     inkscape:window-width="1293"
     inkscape:window-height="745"
     inkscape:window-x="-8"
     inkscape:window-y="-8"
     inkscape:window-maximized="1"
     inkscape:current-layer="g494" />
  <defs
     id="defs14">
    <linearGradient
       id="IconifyId1813088fe1fbc01fb466"
       x1="-.828%"
       x2="57.636%"
       y1="7.652%"
       y2="78.411%">
      <stop
         offset="0%"
         stop-color="#41D1FF"
         id="stop2" />
      <stop
         offset="100%"
         stop-color="#BD34FE"
         id="stop4" />
    </linearGradient>
    <linearGradient
       id="IconifyId1813088fe1fbc01fb467"
       x1="43.376%"
       x2="50.316%"
       y1="2.242%"
       y2="89.03%">
      <stop
         offset="0%"
         stop-color="#FFEA83"
         id="stop7" />
      <stop
         offset="8.333%"
         stop-color="#FFDD35"
         id="stop9" />
      <stop
         offset="100%"
         stop-color="#FFA800"
         id="stop11" />
    </linearGradient>
  </defs>
  <g
     id="g494"
     transform="matrix(2.0797757,0,0,2.0797757,-5.1056448,-4.6056448)">
    <path
       d="M 87.4,124 H 40.6 C 35.9,124 32,120.2 32,115.4 V 12.6 C 32,7.9 35.9,4 40.6,4 h 46.8 c 4.7,0 8.6,3.8 8.6,8.6 v 102.9 c 0,4.7 -3.9,8.5 -8.6,8.5 z"
       fill="#424242"
       id="path251"
       style="fill:#dbdee3" />
    <path
       d="m 73.65,11.59 h -19.2 c -0.7,0 -1.2,-0.6 -1.2,-1.2 0,-0.6 0.6,-1.2 1.2,-1.2 h 19.1 c 0.7,0 1.2,0.6 1.2,1.2 0,0.6 -0.5,1.2 -1.1,1.2 z"
       fill="#212121"
       id="path255"
       style="fill:#dbdee3" />
    <path
       d="m 87.399998,6.0000009 c 3.64,0 6.6,2.96 6.6,6.6000001 V 115.5 c 0,3.58 -2.96,6.5 -6.6,6.5 H 40.600002 c -3.64,0 -6.6,-2.96 -6.6,-6.6 V 12.600001 c 0,-3.5800001 3.02,-6.6000001 6.6,-6.6000001 h 46.799996 m 0,-2 H 40.600002 c -4.7,0 -8.6,3.9 -8.6,8.6000001 V 115.4 c 0,4.8 3.9,8.6 8.6,8.6 h 46.799996 c 4.7,0 8.6,-3.8 8.6,-8.5 V 12.600001 c 0,-4.8000001 -3.9,-8.6000001 -8.6,-8.6000001 z"
       fill="#757575"
       id="path257"
       style="fill:#8787de" />
    <path
       d="m 48.35,29.96 h -6.36 c -0.73,0 -1.32,-0.59 -1.32,-1.32 v -6.36 c 0,-0.73 0.59,-1.32 1.32,-1.32 h 6.36 c 0.73,0 1.32,0.59 1.32,1.32 v 6.36 c 0,0.73 -0.59,1.32 -1.32,1.32 z"
       fill="#eab56e"
       id="path259" />
    <path
       d="m 60.9,29.96 h -6.36 c -0.73,0 -1.32,-0.59 -1.32,-1.32 v -6.36 c 0,-0.73 0.59,-1.32 1.32,-1.32 h 6.36 c 0.73,0 1.32,0.59 1.32,1.32 v 6.36 c 0,0.73 -0.59,1.32 -1.32,1.32 z"
       fill="#fb8c00"
       id="path261" />
    <path
       d="M 73.45,29.96 H 67.1 c -0.73,0 -1.32,-0.59 -1.32,-1.32 v -6.36 c 0,-0.73 0.59,-1.32 1.32,-1.32 h 6.36 c 0.73,0 1.32,0.59 1.32,1.32 v 6.36 c 0,0.73 -0.59,1.32 -1.33,1.32 z"
       fill="#ff80ab"
       id="path263" />
    <path
       d="m 86.01,29.96 h -6.36 c -0.73,0 -1.32,-0.59 -1.32,-1.32 v -6.36 c 0,-0.73 0.59,-1.32 1.32,-1.32 h 6.36 c 0.73,0 1.32,0.59 1.32,1.32 v 6.36 c 0,0.73 -0.59,1.32 -1.32,1.32 z"
       fill="#0288d1"
       id="path265" />
    <path
       d="m 48.35,44.12 h -6.36 c -0.73,0 -1.32,-0.59 -1.32,-1.32 v -6.36 c 0,-0.73 0.59,-1.32 1.32,-1.32 h 6.36 c 0.73,0 1.32,0.59 1.32,1.32 v 6.36 c 0,0.73 -0.59,1.32 -1.32,1.32 z"
       fill="#00bfa5"
       id="path267" />
    <path
       d="m 60.9,44.12 h -6.36 c -0.73,0 -1.32,-0.59 -1.32,-1.32 v -6.36 c 0,-0.73 0.59,-1.32 1.32,-1.32 h 6.36 c 0.73,0 1.32,0.59 1.32,1.32 v 6.36 c 0,0.73 -0.59,1.32 -1.32,1.32 z"
       fill="#81d4fa"
       id="path269" />
    <path
       d="M 73.45,44.12 H 67.1 c -0.73,0 -1.32,-0.59 -1.32,-1.32 v -6.36 c 0,-0.73 0.59,-1.32 1.32,-1.32 h 6.36 c 0.73,0 1.32,0.59 1.32,1.32 v 6.36 c 0,0.73 -0.59,1.32 -1.33,1.32 z"
       fill="#fb8c00"
       id="path271" />
    <path
       d="m 86.01,44.12 h -6.36 c -0.73,0 -1.32,-0.59 -1.32,-1.32 v -6.36 c 0,-0.73 0.59,-1.32 1.32,-1.32 h 6.36 c 0.73,0 1.32,0.59 1.32,1.32 v 6.36 c 0,0.73 -0.59,1.32 -1.32,1.32 z"
       fill="#eab56e"
       id="path273" />
    <path
       d="m 48.35,58.28 h -6.36 c -0.73,0 -1.32,-0.59 -1.32,-1.32 V 50.6 c 0,-0.73 0.59,-1.32 1.32,-1.32 h 6.36 c 0.73,0 1.32,0.59 1.32,1.32 v 6.36 c 0,0.73 -0.59,1.32 -1.32,1.32 z"
       fill="#fb8c00"
       id="path275" />
    <path
       d="m 60.9,58.28 h -6.36 c -0.73,0 -1.32,-0.59 -1.32,-1.32 V 50.6 c 0,-0.73 0.59,-1.32 1.32,-1.32 h 6.36 c 0.73,0 1.32,0.59 1.32,1.32 v 6.36 c 0,0.73 -0.59,1.32 -1.32,1.32 z"
       fill="#ff80ab"
       id="path277" />
    <path
       d="M 73.45,58.28 H 67.1 c -0.73,0 -1.32,-0.59 -1.32,-1.32 V 50.6 c 0,-0.73 0.59,-1.32 1.32,-1.32 h 6.36 c 0.73,0 1.32,0.59 1.32,1.32 v 6.36 c 0,0.73 -0.59,1.32 -1.33,1.32 z"
       fill="#00bfa5"
       id="path279" />
    <path
       d="m 86.01,58.28 h -6.36 c -0.73,0 -1.32,-0.59 -1.32,-1.32 V 50.6 c 0,-0.73 0.59,-1.32 1.32,-1.32 h 6.36 c 0.73,0 1.32,0.59 1.32,1.32 v 6.36 c 0,0.73 -0.59,1.32 -1.32,1.32 z"
       fill="#0288d1"
       id="path281" />
    <path
       d="m 48.35,72.44 h -6.36 c -0.73,0 -1.32,-0.59 -1.32,-1.32 v -6.36 c 0,-0.73 0.59,-1.32 1.32,-1.32 h 6.36 c 0.73,0 1.32,0.59 1.32,1.32 v 6.36 c 0,0.73 -0.59,1.32 -1.32,1.32 z"
       fill="#0288d1"
       id="path283" />
    <path
       d="m 60.9,72.44 h -6.36 c -0.73,0 -1.32,-0.59 -1.32,-1.32 v -6.36 c 0,-0.73 0.59,-1.32 1.32,-1.32 h 6.36 c 0.73,0 1.32,0.59 1.32,1.32 v 6.36 c 0,0.73 -0.59,1.32 -1.32,1.32 z"
       fill="#81d4fa"
       id="path285" />
    <path
       d="m 48.35,114.92 h -6.36 c -0.73,0 -1.32,-0.59 -1.32,-1.32 v -6.36 c 0,-0.73 0.59,-1.32 1.32,-1.32 h 6.36 c 0.73,0 1.32,0.59 1.32,1.32 v 6.36 c 0,0.72 -0.59,1.32 -1.32,1.32 z"
       fill="#81d4fa"
       id="path287" />
    <path
       d="m 60.9,114.92 h -6.36 c -0.73,0 -1.32,-0.59 -1.32,-1.32 v -6.36 c 0,-0.73 0.59,-1.32 1.32,-1.32 h 6.36 c 0.73,0 1.32,0.59 1.32,1.32 v 6.36 c 0,0.72 -0.59,1.32 -1.32,1.32 z"
       fill="#0288d1"
       id="path289" />
    <path
       d="M 73.45,114.92 H 67.1 c -0.73,0 -1.32,-0.59 -1.32,-1.32 v -6.36 c 0,-0.73 0.59,-1.32 1.32,-1.32 h 6.36 c 0.73,0 1.32,0.59 1.32,1.32 v 6.36 c 0,0.72 -0.59,1.32 -1.33,1.32 z"
       fill="#00bfa5"
       id="path291" />
    <path
       d="m 86.01,114.92 h -6.36 c -0.73,0 -1.32,-0.59 -1.32,-1.32 v -6.36 c 0,-0.73 0.59,-1.32 1.32,-1.32 h 6.36 c 0.73,0 1.32,0.59 1.32,1.32 v 6.36 c 0,0.72 -0.59,1.32 -1.32,1.32 z"
       fill="#ff80ab"
       id="path293" />
    <rect
       style="fill:#1c1f24;fill-rule:evenodd;stroke-width:2.23634;stop-color:#000000"
       id="rect949"
       width="35.121101"
       height="3.3988154"
       x="46.439449"
       y="10.145062"
       ry="1.1821967" />
    <text
       xml:space="preserve"
       style="font-size:26.4172px;font-family:Calibri;-inkscape-font-specification:Calibri;text-align:end;text-anchor:end;fill:#1c1f24;fill-rule:evenodd;stroke-width:1.40406;stop-color:#000000"
       x="89.258438"
       y="96.978828"
       id="text1005"><tspan
         sodipodi:role="line"
         id="tspan1003"
         style="stroke-width:1.40406"
         x="89.258438"
         y="96.978828">YAYA</tspan></text>
  </g>
</svg>
